<svg width="40" height="40" viewBox="0 0 40 40" fill="none" xmlns="http://www.w3.org/2000/svg">
<g clip-path="url(#clip0_2_30)" filter="url(#filter0_d_2_30)">
<path fill-rule="evenodd" clip-rule="evenodd" d="M35.3672 27.7357C35.0561 28.5258 34.3384 29.6383 33.3205 30.4219C32.7329 30.8745 32.0313 31.3072 31.0676 31.5927C30.0403 31.8971 28.7749 32 27.2 32H12.8001C11.2253 32 9.95999 31.8971 8.93258 31.5927C7.96888 31.3072 7.2674 30.8745 6.67962 30.4219C5.66187 29.6382 4.94399 28.5258 4.63293 27.7357C4.00636 26.1438 4 24.3376 4 23.2V8.79997C4 7.66243 4.00636 5.85622 4.63293 4.26429C4.94399 3.47418 5.66174 2.36169 6.67962 1.57806C7.26727 1.12546 7.96888 0.692826 8.93258 0.407328C9.95986 0.102881 11.2252 0 12.8001 0H27.2002C28.7749 0 30.0403 0.102881 31.0677 0.407328C32.0314 0.692826 32.7329 1.12559 33.3206 1.57806C34.3384 2.36182 35.0563 3.47418 35.3673 4.26429C35.9939 5.85622 36.0003 7.66243 36.0003 8.79997V23.2C36.0001 24.3375 35.9938 26.1437 35.3672 27.7357Z" fill="url(#paint0_linear_2_30)"/>
<path d="M22.3209 18.3933C21.8407 17.8867 20.9973 17.5619 20.0016 17.5619C19.0059 17.5619 18.1625 17.8867 17.6823 18.3933C17.4318 18.6577 17.2993 18.9287 17.2575 19.3148C17.1767 20.0625 17.2221 20.7062 17.3097 21.7354C17.3931 22.7161 17.5516 24.024 17.7583 25.356C17.9055 26.3039 18.025 26.8155 18.1339 27.1819C18.3104 27.7756 18.97 28.2949 20.0016 28.2949C21.0331 28.2949 21.6928 27.7755 21.8693 27.1819C21.9781 26.8155 22.0977 26.3039 22.2448 25.356C22.4516 24.024 22.61 22.7161 22.6935 21.7354C22.7811 20.7061 22.8265 20.0623 22.7456 19.3148C22.7039 18.9289 22.5714 18.6577 22.3209 18.3933ZM17.3852 13.8822C17.3852 15.3285 18.5577 16.501 20.0041 16.501C21.4505 16.501 22.623 15.3285 22.623 13.8822C22.623 12.4358 21.4505 11.2633 20.0041 11.2633C18.5577 11.2633 17.3852 12.4358 17.3852 13.8822ZM19.9716 3.54704C13.8467 3.56447 8.8279 8.53341 8.7521 14.658C8.69055 19.6193 11.8576 23.8632 16.28 25.4188C16.3873 25.4565 16.4963 25.3674 16.4794 25.2549C16.4214 24.8696 16.3667 24.4825 16.3165 24.1019C16.2987 23.9674 16.213 23.8514 16.0887 23.7971C12.5933 22.27 10.1525 18.7644 10.1917 14.7037C10.2431 9.37477 14.5946 5.03036 19.9236 4.98725C25.3714 4.94325 29.8174 9.36219 29.8174 14.8C29.8174 18.82 27.3873 22.2826 23.9191 23.7975C23.7949 23.8518 23.7097 23.9681 23.692 24.1026C23.6418 24.483 23.5871 24.87 23.5292 25.2549C23.5122 25.3674 23.6212 25.4565 23.7285 25.4189C28.1086 23.8782 31.2573 19.7003 31.2573 14.8001C31.257 8.58415 26.1914 3.52924 19.9716 3.54704ZM19.7683 8.70954C23.2404 8.57512 26.1079 11.3607 26.1079 14.8034C26.1079 16.5543 25.3661 18.1351 24.1805 19.2483C24.0799 19.3427 24.0258 19.4767 24.0336 19.6144C24.0572 20.0332 24.0486 20.4402 24.0207 20.8998C24.0132 21.0222 24.1506 21.1004 24.2519 21.0314C26.2401 19.6727 27.5478 17.3881 27.5478 14.8034C27.5478 10.5478 24.0031 7.10439 19.7112 7.27073C15.7226 7.42537 12.5226 10.7139 12.4715 14.7053C12.4379 17.3303 13.7536 19.6559 15.7674 21.0316C15.8685 21.1007 16.0054 21.0224 15.9979 20.9C15.9699 20.4402 15.9614 20.0332 15.9849 19.6144C15.9927 19.4768 15.9388 19.3428 15.8384 19.2486C14.6158 18.1007 13.865 16.4558 13.9128 14.6398C13.997 11.444 16.5736 8.83328 19.7683 8.70954Z" fill="white"/>
</g>
<defs>
<filter id="filter0_d_2_30" x="0" y="0" width="40" height="40" filterUnits="userSpaceOnUse" color-interpolation-filters="sRGB">
<feFlood flood-opacity="0" result="BackgroundImageFix"/>
<feColorMatrix in="SourceAlpha" type="matrix" values="0 0 0 0 0 0 0 0 0 0 0 0 0 0 0 0 0 0 127 0" result="hardAlpha"/>
<feOffset dy="4"/>
<feGaussianBlur stdDeviation="2"/>
<feComposite in2="hardAlpha" operator="out"/>
<feColorMatrix type="matrix" values="0 0 0 0 0 0 0 0 0 0 0 0 0 0 0 0 0 0 0.25 0"/>
<feBlend mode="normal" in2="BackgroundImageFix" result="effect1_dropShadow_2_30"/>
<feBlend mode="normal" in="SourceGraphic" in2="effect1_dropShadow_2_30" result="shape"/>
</filter>
<linearGradient id="paint0_linear_2_30" x1="20.0001" y1="0" x2="20.0001" y2="32" gradientUnits="userSpaceOnUse">
<stop stop-color="#F452FF"/>
<stop offset="1" stop-color="#832BC1"/>
</linearGradient>
<clipPath id="clip0_2_30">
<rect width="32" height="32" fill="white" transform="translate(4)"/>
</clipPath>
</defs>
</svg>
